<?xml version="1.0" encoding="UTF-8" standalone="no"?>
<!-- Created with Inkscape (http://www.inkscape.org/) -->

<svg
   xmlns:dc="http://purl.org/dc/elements/1.1/"
   xmlns:cc="http://creativecommons.org/ns#"
   xmlns:rdf="http://www.w3.org/1999/02/22-rdf-syntax-ns#"
   xmlns:svg="http://www.w3.org/2000/svg"
   xmlns="http://www.w3.org/2000/svg"
   version="1.1"
   width="56.992245"
   height="49.012547"
   id="svg50357">
  <defs
     id="defs50359">
    <clipPath
       id="clipPath48819">
      <path
         d="m 54.628,229.218 46.768,0 0,40.422 -46.768,0 0,-40.422 z"
         id="path48821" />
    </clipPath>
    <clipPath
       id="clipPath48751">
      <path
         d="m 54.628,229.218 46.768,0 0,40.422 -46.768,0 0,-40.422 z"
         id="path48753" />
    </clipPath>
  </defs>
  <metadata
     id="metadata50362">
    <rdf:RDF>
      <cc:Work
         rdf:about="">
        <dc:format>image/svg+xml</dc:format>
        <dc:type
           rdf:resource="http://purl.org/dc/dcmitype/StillImage" />
        <dc:title></dc:title>
      </cc:Work>
    </rdf:RDF>
  </metadata>
  <g
     transform="translate(48.492967,-290.71056)"
     id="layer1">
    <path
       d="m -31.895973,299.99209 12.71417,24.85191"
       id="path48681"
       style="fill:none;stroke:#b7d4d2;stroke-width:0.61942858;stroke-linecap:butt;stroke-linejoin:miter;stroke-miterlimit:10;stroke-opacity:1;stroke-dasharray:none" />
    <path
       d="m -30.237533,308.30966 8.60287,16.81565"
       id="path48685"
       style="fill:none;stroke:#b7d4d2;stroke-width:0.61942858;stroke-linecap:butt;stroke-linejoin:miter;stroke-miterlimit:10;stroke-opacity:1;stroke-dasharray:none" />
    <path
       d="m -29.270243,299.99209 12.71436,24.85191"
       id="path48689"
       style="fill:none;stroke:#b7d4d2;stroke-width:0.61942858;stroke-linecap:butt;stroke-linejoin:miter;stroke-miterlimit:10;stroke-opacity:1;stroke-dasharray:none" />
    <path
       d="m -26.368103,299.99209 12.71436,24.85191"
       id="path48693"
       style="fill:none;stroke:#b7d4d2;stroke-width:0.61942858;stroke-linecap:butt;stroke-linejoin:miter;stroke-miterlimit:10;stroke-opacity:1;stroke-dasharray:none" />
    <path
       d="m -23.811433,299.99209 12.71436,24.85191"
       id="path48697"
       style="fill:none;stroke:#b7d4d2;stroke-width:0.61942858;stroke-linecap:butt;stroke-linejoin:miter;stroke-miterlimit:10;stroke-opacity:1;stroke-dasharray:none" />
    <path
       d="M -20.978353,299.99209 -8.2639933,324.844"
       id="path48701"
       style="fill:none;stroke:#b7d4d2;stroke-width:0.61942858;stroke-linecap:butt;stroke-linejoin:miter;stroke-miterlimit:10;stroke-opacity:1;stroke-dasharray:none" />
    <path
       d="m -18.007043,301.07271 12.1614597,23.77131"
       id="path48705"
       style="fill:none;stroke:#b7d4d2;stroke-width:0.61942858;stroke-linecap:butt;stroke-linejoin:miter;stroke-miterlimit:10;stroke-opacity:1;stroke-dasharray:none" />
    <path
       d="m -14.897613,301.07271 12.1614597,23.77131"
       id="path48709"
       style="fill:none;stroke:#b7d4d2;stroke-width:0.61942858;stroke-linecap:butt;stroke-linejoin:miter;stroke-miterlimit:10;stroke-opacity:1;stroke-dasharray:none" />
    <path
       d="M -11.511783,302.28854 0.02767665,324.84403"
       id="path48713"
       style="fill:none;stroke:#b7d4d2;stroke-width:0.61942858;stroke-linecap:butt;stroke-linejoin:miter;stroke-miterlimit:10;stroke-opacity:1;stroke-dasharray:none" />
    <path
       d="m -8.8168833,302.28854 11.53946,22.55549"
       id="path48717"
       style="fill:none;stroke:#b7d4d2;stroke-width:0.61942858;stroke-linecap:butt;stroke-linejoin:miter;stroke-miterlimit:10;stroke-opacity:1;stroke-dasharray:none" />
    <path
       d="m -6.3292833,302.28854 11.53946,22.55549"
       id="path48721"
       style="fill:none;stroke:#b7d4d2;stroke-width:0.61942858;stroke-linecap:butt;stroke-linejoin:miter;stroke-miterlimit:10;stroke-opacity:1;stroke-dasharray:none" />
    <path
       d="m -3.1507033,302.46779 8.49914,16.61294"
       id="path48725"
       style="fill:none;stroke:#b7d4d2;stroke-width:0.61942858;stroke-linecap:butt;stroke-linejoin:miter;stroke-miterlimit:10;stroke-opacity:1;stroke-dasharray:none" />
    <path
       d="M -0.45583335,302.46779 6.1093867,315.3005"
       id="path48729"
       style="fill:none;stroke:#b7d4d2;stroke-width:0.61942858;stroke-linecap:butt;stroke-linejoin:miter;stroke-miterlimit:10;stroke-opacity:1;stroke-dasharray:none" />
    <path
       d="m 2.3371567,302.32453 4.56698,8.9273"
       id="path48733"
       style="fill:none;stroke:#b7d4d2;stroke-width:0.61942858;stroke-linecap:butt;stroke-linejoin:miter;stroke-miterlimit:10;stroke-opacity:1;stroke-dasharray:none" />
    <path
       d="m 4.9434467,302.4049 2.5921,5.06688"
       id="path48737"
       style="fill:none;stroke:#b7d4d2;stroke-width:0.61942858;stroke-linecap:butt;stroke-linejoin:miter;stroke-miterlimit:10;stroke-opacity:1;stroke-dasharray:none" />
    <path
       d="m 6.0394167,316.47974 -4.56047,8.76647"
       id="path48741"
       style="fill:none;stroke:#b7d4d2;stroke-width:0.61942858;stroke-linecap:butt;stroke-linejoin:miter;stroke-miterlimit:10;stroke-opacity:1;stroke-dasharray:none" />
    <path
       d="m 6.7995267,310.5281 -8.08461,14.39648"
       id="path48745"
       style="fill:none;stroke:#b7d4d2;stroke-width:0.61942858;stroke-linecap:butt;stroke-linejoin:miter;stroke-miterlimit:10;stroke-opacity:1;stroke-dasharray:none" />
    <g
       transform="matrix(1.25,0,0,-1.25,-117.94366,626.24674)"
       clip-path="url(#clipPath48751)"
       id="g48749">
      <g
         transform="matrix(0.1531067,0,0,-0.1782074,100.66026,258.42998)"
         id="g48755">
        <path
           d="M 0,0 -63.423,97.03"
           id="path48757"
           style="fill:none;stroke:#b7d4d2;stroke-width:3;stroke-linecap:butt;stroke-linejoin:miter;stroke-miterlimit:10;stroke-opacity:1;stroke-dasharray:none" />
      </g>
    </g>
    <path
       d="m 5.1868067,303.12878 -12.13811,21.61433"
       id="path48761"
       style="fill:none;stroke:#b7d4d2;stroke-width:0.61942858;stroke-linecap:butt;stroke-linejoin:miter;stroke-miterlimit:10;stroke-opacity:1;stroke-dasharray:none" />
    <path
       d="m 2.5610567,302.48529 -12.13811,21.61433"
       id="path48765"
       style="fill:none;stroke:#b7d4d2;stroke-width:0.61942858;stroke-linecap:butt;stroke-linejoin:miter;stroke-miterlimit:10;stroke-opacity:1;stroke-dasharray:none" />
    <path
       d="M -0.27192335,302.48529 -12.410033,324.09962"
       id="path48769"
       style="fill:none;stroke:#b7d4d2;stroke-width:0.61942858;stroke-linecap:butt;stroke-linejoin:miter;stroke-miterlimit:10;stroke-opacity:1;stroke-dasharray:none" />
    <path
       d="M -3.3813433,302.72654 -15.519453,324.34087"
       id="path48773"
       style="fill:none;stroke:#b7d4d2;stroke-width:0.61942858;stroke-linecap:butt;stroke-linejoin:miter;stroke-miterlimit:10;stroke-opacity:1;stroke-dasharray:none" />
    <path
       d="M -5.7149433,302.08329 -18.214383,324.34095"
       id="path48777"
       style="fill:none;stroke:#b7d4d2;stroke-width:0.61942858;stroke-linecap:butt;stroke-linejoin:miter;stroke-miterlimit:10;stroke-opacity:1;stroke-dasharray:none" />
    <path
       d="M -8.5481233,302.00279 -21.047563,324.26045"
       id="path48781"
       style="fill:none;stroke:#b7d4d2;stroke-width:0.61942858;stroke-linecap:butt;stroke-linejoin:miter;stroke-miterlimit:10;stroke-opacity:1;stroke-dasharray:none" />
    <path
       d="m -11.311963,301.76155 -12.49944,22.25766"
       id="path48785"
       style="fill:none;stroke:#b7d4d2;stroke-width:0.61942858;stroke-linecap:butt;stroke-linejoin:miter;stroke-miterlimit:10;stroke-opacity:1;stroke-dasharray:none" />
    <path
       d="m -13.315883,300.71583 -12.49944,22.25766"
       id="path48789"
       style="fill:none;stroke:#b7d4d2;stroke-width:0.61942858;stroke-linecap:butt;stroke-linejoin:miter;stroke-miterlimit:10;stroke-opacity:1;stroke-dasharray:none" />
    <path
       d="m -16.694273,301.13829 -9.92514,17.67394"
       id="path48793"
       style="fill:none;stroke:#b7d4d2;stroke-width:0.61942858;stroke-linecap:butt;stroke-linejoin:miter;stroke-miterlimit:10;stroke-opacity:1;stroke-dasharray:none" />
    <path
       d="m -19.613963,301.11807 -8.20518,14.611"
       id="path48797"
       style="fill:none;stroke:#b7d4d2;stroke-width:0.61942858;stroke-linecap:butt;stroke-linejoin:miter;stroke-miterlimit:10;stroke-opacity:1;stroke-dasharray:none" />
    <path
       d="m -22.202333,300.55506 -6.68464,11.90336"
       id="path48801"
       style="fill:none;stroke:#b7d4d2;stroke-width:0.61942858;stroke-linecap:butt;stroke-linejoin:miter;stroke-miterlimit:10;stroke-opacity:1;stroke-dasharray:none" />
    <path
       d="m -25.037853,300.87681 -4.92315,8.76647"
       id="path48805"
       style="fill:none;stroke:#b7d4d2;stroke-width:0.61942858;stroke-linecap:butt;stroke-linejoin:miter;stroke-miterlimit:10;stroke-opacity:1;stroke-dasharray:none" />
    <path
       d="m -27.671233,300.23344 -3.56815,6.35376"
       id="path48809"
       style="fill:none;stroke:#b7d4d2;stroke-width:0.61942858;stroke-linecap:butt;stroke-linejoin:miter;stroke-miterlimit:10;stroke-opacity:1;stroke-dasharray:none" />
    <path
       d="m -30.513973,300.40714 -1.52016,2.70697"
       id="path48813"
       style="fill:none;stroke:#b7d4d2;stroke-width:0.61942858;stroke-linecap:butt;stroke-linejoin:miter;stroke-miterlimit:10;stroke-opacity:1;stroke-dasharray:none" />
    <g
       transform="matrix(1.25,0,0,-1.25,-117.94366,626.24674)"
       clip-path="url(#clipPath48819)"
       id="g48817">
      <g
         transform="matrix(0.1531067,0,0,-0.1782074,61.486038,265.25024)"
         id="g48823">
        <path
           d="m 0,0 20.58,5.416 c 0,0 3.61,-2.166 11.553,18.774 L 74.015,130.7 c 0,0 2.888,5.777 0,8.304 0,0 -30.689,12.637 -7.582,36.827 l 162.834,0.723 c 0,0 14.441,-5.778 -0.362,-10.832 L 72.21,164.639 c 0,0 -7.943,-8.304 1.083,-13.72 l 8.304,-5.777 c 0,0 6.86,-1.444 4.333,-11.914 0,0 -41.159,-111.926 -46.936,-125.646 0,0 -3.611,-8.665 -11.193,-12.276 L 7.943,-8.665 0,0 z"
           id="path48825"
           style="fill:#b7d4d2;fill-opacity:1;fill-rule:nonzero;stroke:none" />
      </g>
      <g
         transform="matrix(0.1531067,0,0,-0.1782074,67.677292,261.90451)"
         id="g48827">
        <path
           d="m 0,0 210.131,14.442 c 0,0 10.11,-1.805 8.305,9.388 l -14.443,88.096 c 0,0 0.723,11.193 -10.831,7.943 l -149.836,0 -2.888,-6.139 154.89,-1.443 L 210.854,22.385 2.527,8.304 0,0 z"
           id="path48829"
           style="fill:#b7d4d2;fill-opacity:1;fill-rule:nonzero;stroke:none" />
      </g>
      <g
         transform="matrix(0.1531067,0,0,-0.1782074,64.148361,266.01755)"
         id="g48831">
        <path
           d="M 0,0 C -0.63,4.749 -13.579,6.947 -28.921,4.91 -44.264,2.874 -56.19,-2.627 -55.56,-7.375 c 0.63,-4.749 13.579,-6.947 28.921,-4.911 C -11.296,-10.249 0.63,-4.748 0,0"
           id="path48833"
           style="fill:#8db9b8;fill-opacity:1;fill-rule:nonzero;stroke:none" />
      </g>
      <g
         transform="matrix(0.1531067,0,0,-0.1782074,64.148361,266.01755)"
         id="g48835">
        <path
           d="M 0,0 C -0.63,4.749 -13.579,6.947 -28.921,4.91 -44.264,2.874 -56.19,-2.627 -55.56,-7.375 c 0.63,-4.749 13.579,-6.947 28.921,-4.911 C -11.296,-10.249 0.63,-4.748 0,0 z"
           id="path48837"
           style="fill:none;stroke:#8db9b8;stroke-width:1;stroke-linecap:butt;stroke-linejoin:miter;stroke-miterlimit:10;stroke-opacity:1;stroke-dasharray:none" />
      </g>
      <g
         transform="matrix(0.1531067,0,0,-0.1782074,77.9039,232.91849)"
         id="g48839">
        <path
           d="m 0,0 c 0,11.465 -9.295,20.76 -20.76,20.76 -11.466,0 -20.761,-9.295 -20.761,-20.76 0,-11.466 9.295,-20.761 20.761,-20.761 C -9.295,-20.761 0,-11.466 0,0"
           id="path48841"
           style="fill:#8db9b8;fill-opacity:1;fill-rule:nonzero;stroke:none" />
      </g>
      <g
         transform="matrix(0.1531067,0,0,-0.1782074,96.89241,232.91849)"
         id="g48843">
        <path
           d="m 0,0 c 0,11.465 -9.295,20.76 -20.761,20.76 -11.466,0 -20.76,-9.295 -20.76,-20.76 0,-11.466 9.294,-20.761 20.76,-20.761 C -9.295,-20.761 0,-11.466 0,0"
           id="path48845"
           style="fill:#8db9b8;fill-opacity:1;fill-rule:nonzero;stroke:none" />
      </g>
      <g
         transform="matrix(0.1531067,0,0,-0.1782074,76.328491,232.78952)"
         id="g48847">
        <path
           d="m 0,0 c 0,5.583 -4.526,10.108 -10.109,10.108 -5.583,0 -10.11,-4.525 -10.11,-10.108 0,-5.585 4.527,-10.11 10.11,-10.11 C -4.526,-10.11 0,-5.585 0,0"
           id="path48849"
           style="fill:#cee2e0;fill-opacity:1;fill-rule:nonzero;stroke:none" />
      </g>
      <g
         transform="matrix(0.1531067,0,0,-0.1782074,95.206299,232.88611)"
         id="g48851">
        <path
           d="m 0,0 c 0,5.583 -4.526,10.108 -10.109,10.108 -5.583,0 -10.11,-4.525 -10.11,-10.108 0,-5.585 4.527,-10.11 10.11,-10.11 C -4.526,-10.11 0,-5.585 0,0"
           id="path48853"
           style="fill:#cee2e0;fill-opacity:1;fill-rule:nonzero;stroke:none" />
      </g>
    </g>
  </g>
</svg>
