<svg width="645" height="601" viewBox="0 0 645 601" fill="none" xmlns="http://www.w3.org/2000/svg">
<ellipse cx="92" cy="508.5" rx="92" ry="92.5" fill="#F7F7F7"/>
<circle cx="603.5" cy="41.5" r="41.5" fill="#F7F7F7"/>
<ellipse cx="347.5" cy="271.5" rx="243.5" ry="245.5" fill="#F7F7F7"/>
<path d="M134 386H562" stroke="#AF94A2" stroke-linecap="round" stroke-linejoin="round" stroke-dasharray="10 10"/>
<path d="M393.804 226.117C386.601 223.427 380.849 217.164 377.817 210.203C376.404 206.951 375.6 203.467 375.444 199.925C375.185 196.588 375.751 193.239 377.09 190.172C379.594 185.098 385.248 183 390.64 183.475C393.379 183.702 396.029 184.554 398.388 185.965C400.83 187.444 402.749 189.649 403.874 192.273C404.627 193.704 404.944 195.324 404.787 196.933C404.669 197.551 404.322 198.101 403.816 198.475C403.31 198.849 402.682 199.018 402.057 198.949C400.454 198.74 398.968 198 397.837 196.846C396.423 195.594 395.268 194.078 394.436 192.383C392.637 188.816 391.554 184.93 391.25 180.947C391.164 177.566 391.891 174.215 393.372 171.174C394.696 167.945 396.909 165.158 399.753 163.135C402.906 161.312 406.567 160.566 410.181 161.009C413.814 161.291 417.332 162.405 420.465 164.265C421.85 165.037 423.061 166.087 424.021 167.35C424.692 168.314 425.369 169.812 424.752 171.008C424.134 172.204 422.154 172.368 420.929 171.928C419.14 171.174 417.632 169.876 416.618 168.219C415.469 166.463 414.585 164.547 413.995 162.533C413.547 161.081 413.484 159.537 413.811 158.052C415.284 151.884 423.004 149.365 428.615 149.396C430.129 149.408 431.634 149.631 433.086 150.06C433.584 150.168 433.103 150.923 432.709 150.807C429.85 150.049 426.841 150.074 423.995 150.88C421.228 151.49 418.706 152.913 416.753 154.966C415.859 155.993 415.256 157.242 415.008 158.581C414.761 159.92 414.877 161.302 415.346 162.581C415.941 164.455 416.802 166.234 417.903 167.864C418.837 169.172 420.34 170.777 421.998 171.014C422.267 171.072 422.548 171.053 422.807 170.959C423.066 170.865 423.294 170.7 423.464 170.483C423.583 170.173 423.627 169.839 423.594 169.509C423.561 169.178 423.451 168.86 423.273 168.579C422.612 167.463 421.7 166.515 420.61 165.811C417.943 163.956 414.882 162.745 411.667 162.273C408.39 161.624 404.994 161.954 401.903 163.223C399.139 164.659 396.903 166.937 395.518 169.727C393.924 172.52 392.944 175.621 392.642 178.824C392.541 182.09 393.098 185.343 394.28 188.389C395.439 191.772 397.082 195.137 400.228 197.048C401.003 197.534 402.667 198.355 403.264 197.206C403.861 196.056 403.231 194.343 402.821 193.262C401.924 190.824 400.303 188.718 398.175 187.229C396.112 185.833 393.753 184.935 391.284 184.607C386.607 183.95 381.414 185.34 378.819 189.565C377.421 192.124 376.705 194.999 376.74 197.914C376.654 201.083 377.114 204.242 378.099 207.255C380.233 213.665 384.367 219.222 389.894 223.109C391.204 224.048 392.575 224.898 393.984 225.716C394.127 225.808 393.974 226.184 393.804 226.117Z" fill="#E0E0E0"/>
<path d="M443.292 148.019C447.262 148.584 451.978 152.831 449.575 154.663C447.172 156.495 442.879 151.756 442.879 151.756C442.879 151.756 442.371 156.404 440.598 156.561C438.824 156.719 437.518 151.892 439.782 149.477C438.912 149.619 438.021 149.539 437.19 149.244C436.36 148.949 435.617 148.449 435.032 147.791C433.045 145.538 435.903 144.439 439.171 145.456C439.171 145.456 438.484 137.12 442.978 139.662C445.232 140.919 445.469 143.927 443.292 148.019Z" fill="#AF94A2"/>
<path d="M439.296 148.891C439.558 148.726 439.83 148.576 440.109 148.443C440.508 148.253 440.925 148.078 441.322 147.898C441.708 147.728 442.105 147.585 442.51 147.47C442.744 147.4 442.982 147.342 443.223 147.298C443.559 147.221 443.909 147.24 444.234 147.353C444.321 147.375 444.401 147.419 444.465 147.482C444.529 147.545 444.575 147.624 444.598 147.71C444.621 147.797 444.62 147.888 444.596 147.974C444.571 148.06 444.524 148.139 444.46 148.2C444.128 148.433 443.744 148.582 443.342 148.633L442.753 148.802C442.345 148.939 441.969 149.113 441.623 149.294C441.277 149.474 440.835 149.624 440.489 149.805C439.896 150.104 439.261 150.311 438.606 150.419C438.575 150.428 438.544 150.429 438.513 150.422C438.482 150.415 438.454 150.401 438.43 150.381C438.016 149.882 438.951 149.112 439.296 148.891Z" fill="#602945"/>
<ellipse cx="276" cy="367.5" rx="16" ry="15.5" fill="#AF94A2"/>
<circle cx="426.5" cy="367.5" r="15.5" fill="#AF94A2"/>
<path d="M263.439 223.365C263.21 222.135 264.154 221 265.405 221H442.71C443.921 221 444.855 222.069 444.691 223.27L429.595 334.27C429.46 335.261 428.613 336 427.613 336H285.991C285.027 336 284.201 335.312 284.025 334.365L263.439 223.365Z" fill="#E5DEE1"/>
<path d="M226 212H248.811L273.047 345H407.061M277.324 233.452H425.485M431.078 272.065L437 233.452H425.485M431.078 272.065H290.155M431.078 272.065L425.485 308.532M425.485 308.532L419.892 345H407.061M425.485 308.532H301.561M425.485 233.452L407.061 345" stroke="#602945" stroke-width="1.5" stroke-linecap="round" stroke-linejoin="round"/>
<path d="M287.25 369C287.25 377.996 280.178 385.25 271.5 385.25C262.822 385.25 255.75 377.996 255.75 369C255.75 360.004 262.822 352.75 271.5 352.75C280.178 352.75 287.25 360.004 287.25 369Z" stroke="#602945" stroke-width="1.5" stroke-linecap="round" stroke-linejoin="round"/>
<path d="M439.25 369C439.25 377.954 431.771 385.25 422.5 385.25C413.229 385.25 405.75 377.954 405.75 369C405.75 360.046 413.229 352.75 422.5 352.75C431.771 352.75 439.25 360.046 439.25 369Z" stroke="#602945" stroke-width="1.5" stroke-linecap="round" stroke-linejoin="round"/>
<circle cx="506" cy="306" r="5" stroke="#602945" stroke-width="1.5" stroke-linecap="round" stroke-linejoin="round"/>
<circle cx="184" cy="229" r="8" stroke="#602945" stroke-width="1.5" stroke-linecap="round" stroke-linejoin="round"/>
<circle cx="195" cy="212" r="3" fill="#602945"/>
<circle cx="195" cy="212" r="3" fill="#AF94A2"/>
<circle cx="278.5" cy="163.5" r="4.5" fill="#602945"/>
<line x1="529.844" y1="289.066" x2="522.066" y2="296.844" stroke="#602945" stroke-width="1.5" stroke-linejoin="round"/>
<line x1="522.066" y1="288.712" x2="529.844" y2="296.49" stroke="#602945" stroke-width="1.5" stroke-linejoin="round"/>
</svg>
